<?xml version="1.0" encoding="iso-8859-1"?>
<!-- Generator: Adobe Illustrator 19.0.0, SVG Export Plug-In . SVG Version: 6.00 Build 0)  -->
<svg version="1.1" id="Layer_1" xmlns="http://www.w3.org/2000/svg" xmlns:xlink="http://www.w3.org/1999/xlink" x="0px" y="0px"
	 viewBox="0 0 512 512" style="enable-background:new 0 0 512 512;" xml:space="preserve">
<g>
	<g>
		<path d="M504.858,248.081H489.93V84.057c0-3.952-3.202-7.142-7.142-7.142h-30.629c-3.952,0-7.142,3.19-7.142,7.142v41.057H66.995
			V84.057c0-3.952-3.202-7.142-7.142-7.142H29.224c-3.952,0-7.142,3.19-7.142,7.142v164.024H7.142c-3.94,0-7.142,3.202-7.142,7.142
			v128.491c0,3.94,3.202,7.142,7.142,7.142H49.32v37.087c0,3.944,3.199,7.142,7.142,7.142h47.336c3.944,0,7.142-3.199,7.142-7.142
			v-37.087h290.123v37.087c0,3.944,3.199,7.142,7.142,7.142h47.336c3.944,0,7.142-3.199,7.142-7.142v-37.087h42.173
			c3.952,0,7.142-3.202,7.142-7.142V255.223C512,251.283,508.81,248.081,504.858,248.081z M459.301,91.199h16.344v156.18h-16.344
			V91.199z M66.995,139.398h378.021v87.464c-8.408-14.157-23.847-23.672-41.474-23.672h-72.063
			c-25.228,0-45.978,19.482-48.029,44.189h-54.899c-2.051-24.707-22.801-44.189-48.029-44.189h-72.062
			c-17.621,0-33.057,9.509-41.466,23.659V139.398z M437.219,247.379H297.802c1.996-16.817,16.332-29.904,33.677-29.904h72.063
			C420.887,217.475,435.223,230.562,437.219,247.379z M214.202,247.379H74.784c1.996-16.817,16.332-29.904,33.677-29.904h72.063
			C197.87,217.475,212.207,230.562,214.202,247.379z M36.367,91.199h16.344v156.18H36.367V91.199z M96.656,420.8H63.605v-29.944
			h33.051V420.8z M448.4,420.8h-33.051v-29.944H448.4V420.8z M497.715,376.572H14.285V262.366h483.431V376.572z"/>
	</g>
</g>
<g>
</g>
<g>
</g>
<g>
</g>
<g>
</g>
<g>
</g>
<g>
</g>
<g>
</g>
<g>
</g>
<g>
</g>
<g>
</g>
<g>
</g>
<g>
</g>
<g>
</g>
<g>
</g>
<g>
</g>
</svg>
